<svg width="24" height="18" viewBox="0 0 24 18" fill="none" xmlns="http://www.w3.org/2000/svg">
<path d="M23.6697 6.58085L12.3728 0.0981105C12.1449 -0.0327035 11.8551 -0.0327035 11.6272 0.0981105L0.330281 6.58085C0.124969 6.69844 0 6.90473 0 7.12673C0 7.34874 0.124969 7.55502 0.330281 7.67262L11.6272 14.1124C11.7412 14.1778 11.8709 14.2105 12 14.2105C12.1291 14.2105 12.2588 14.1778 12.3728 14.1124L23.6697 7.67262C23.875 7.55502 24 7.34874 24 7.12673C24 6.90473 23.875 6.69844 23.6697 6.58085Z" fill="#656974"/>
<path d="M23.6697 10.1209L22.5749 9.47363L13.1178 15.0365C12.7835 15.2346 12.3962 15.3398 12 15.3398C11.6038 15.3398 11.2165 15.2346 10.8808 15.0359L1.42495 9.47381L0.330281 10.1209C0.124969 10.2423 0 10.4554 0 10.6846C0 10.9139 0.124969 11.1269 0.330281 11.2483L11.6272 17.8986C11.7412 17.9662 11.8709 17.9999 12 17.9999C12.1291 17.9999 12.2588 17.9662 12.3728 17.8986L23.6697 11.2483C23.875 11.1269 24 10.9139 24 10.6846C24 10.4554 23.875 10.2423 23.6697 10.1209Z" fill="#656974"/>
</svg>
