<svg width="20" height="24" viewBox="0 0 20 24" fill="none" xmlns="http://www.w3.org/2000/svg">
<path d="M2.96875 24H17.0312C18.1944 24 19.1406 23.0538 19.1406 21.8906V7.03125H14.2188C13.0556 7.03125 12.1094 6.08503 12.1094 4.92188V0H2.96875C1.80559 0 0.859375 0.946219 0.859375 2.10938V21.8906C0.859375 23.0538 1.80559 24 2.96875 24ZM5.07812 11.2969C5.07812 10.9082 5.39261 10.5938 5.78125 10.5938H14.2188C14.6074 10.5938 14.9219 10.9082 14.9219 11.2969V18.3281C14.9219 18.7168 14.6074 19.0312 14.2188 19.0312H5.78125C5.39261 19.0312 5.07812 18.7168 5.07812 18.3281V11.2969Z" fill="white"/>
</svg>
